<svg xmlns="http://www.w3.org/2000/svg" viewBox="-6 -2 86 104">
<style type="text/css">
	.st0{fill:none;stroke:#9B9B9B;}
	.st1{fill:none;}
	.st2{fill:#949494;}
</style>
<path class="st0" d="M-5-1h84v102H-5V-1z M1.5,5.6v71.3h70.9V5.6H1.5z"/>
<g>
	<path class="st1" d="M18.9,22.1h36.3v36.3H18.9V22.1z"/>
	<path class="st2" d="M37,22.1c-7,0-12.7,5.7-12.7,12.7S30,47.5,37,47.5s12.7-5.7,12.7-12.7S44,22.1,37,22.1 M37,25.8
		c5,0,9.1,4.1,9.1,9.1S42,43.9,37,43.9s-9.1-4.1-9.1-9.1S32,25.8,37,25.8"/>
	<path class="st2" d="M21.8,58.6c9.2-7.4,21.2-7.4,30.4,0l2.3-2.8c-10.5-8.5-24.4-8.5-34.9,0C19.5,55.7,21.8,58.6,21.8,58.6z"/>
</g>
</svg>
