<?xml version="1.0" encoding="utf-8"?>
<!-- Generator: Adobe Illustrator 21.0.2, SVG Export Plug-In . SVG Version: 6.00 Build 0)  -->
<svg version="1.1" id="Layer_1" xmlns="http://www.w3.org/2000/svg" xmlns:xlink="http://www.w3.org/1999/xlink" x="0px" y="0px"
	 viewBox="0 0 753.8 163.2" style="enable-background:new 0 0 753.8 163.2;" xml:space="preserve">
<style type="text/css">
	.st0{fill:#00B140;}
	.st1{fill:#37A3E0;}
	.st2{fill:#DA291C;}
	.st3{fill:#FF8200;}
	.st4{fill:#FFB500;}
</style>
<title>Polaroid-Originals-logo-TM-50</title>
<path d="M253.4,35.6c0,21.7-13.6,36.1-41.4,36.1h-20.6v38h-18.7V0h38.9C241.1,0,253.4,16.2,253.4,35.6z M232.1,35.4
	c0-10.8-6.9-17.9-18.5-17.9h-22.1v37.1h21.7C223.4,54.6,232.1,50.1,232.1,35.4L232.1,35.4z"/>
<path d="M349,109.7L349,0h18.7v109.7H349z"/>
<path d="M501.4,44.8c-12.9,0-22.9,6.8-22.9,29.3v35.6h-18.7V28H478v12.7c4.4-10.9,13.9-15.1,22.3-15.1h5.9v19.1L501.4,44.8z"/>
<path d="M599.9,109.8V28h18.7v81.7H599.9z"/>
<rect x="599.9" y="1.2" width="18.7" height="18.7"/>
<path d="M688.5,109.8v-9.2c-6.1,8.1-15.4,11.2-23.8,11.2c-22,0-36-17.8-36-43c0-25.4,15.3-43.2,36.6-43.2c10.3,0,17.6,3.6,22.9,9.8
	V0h19v109.7H688.5z M649.4,68.8c0,17.5,7.2,27,20.1,27c11.7,0,19.6-8.7,19.6-27c0-17.9-8.6-26.8-19.6-26.8
	C656.9,42,649.4,51.9,649.4,68.8z"/>
<path d="M447,51.5v40.4c0,6.4,0.5,12,2.7,17.9h-19.2c-0.9-2.3-1.6-4.6-2-7.1c-6.3,7.1-15.7,9.1-24.4,9.1
	c-17.6,0-27.2-10.8-27.2-25.1c0-15.1,8.6-24.8,32.7-27.7l18.6-2.3v-3.7c0-9.7-3.9-12.9-15.1-12.9c-10.3,0-14.6,3.4-14.8,11.9h-18.2
	c0.5-17.9,13.1-26.3,34.2-26.3C438.8,25.6,447,35.1,447,51.5z M395.6,85.3c0,7.5,4.6,11,13.3,11c10.3,0,19.3-7.4,19.3-17.4v-8.9
	l-13.4,1.9C401.8,73.6,395.6,77,395.6,85.3z"/>
<path d="M339.1,69.1c0,25.4-15.7,43-41.8,43c-26.2,0-41.8-18.2-41.8-43c0-25.1,15.9-43.2,41.8-43.2
	C322.9,25.9,339.1,44.8,339.1,69.1z M276,68.8c0,17.5,8.2,27.5,21.3,27.5s21.3-10.1,21.3-27.5s-8.7-27.1-21.3-27.1
	S276,51.3,276,68.8z"/>
<path d="M590.7,69.1c0,25.4-15.7,43-41.8,43c-26.2,0-41.8-18.2-41.8-43c0-25.1,15.9-43.2,41.8-43.2
	C574.5,25.9,590.7,44.8,590.7,69.1z M527.6,68.8c0,17.5,8.2,27.5,21.3,27.5s21.3-10.1,21.3-27.5s-8.7-27.1-21.3-27.1
	S527.6,51.3,527.6,68.8L527.6,68.8z"/>
<path d="M206.4,144.8c0,12.8-8.4,18.3-17.4,18.3c-8.1,0-17.4-4.9-17.4-18.4c0-13,8.5-18.3,17.4-18.3
	C197.2,126.4,206.4,131,206.4,144.8z M179.5,144.7c0,7.5,3.3,12.1,9.5,12.1c5.5,0,9.5-4.3,9.5-11.9c0-7.4-3.3-12.1-9.5-12.1
	C183.3,132.8,179.5,137.1,179.5,144.7L179.5,144.7z"/>
<path d="M272.4,138.1c0,4.7-2.5,8-7.2,9.7l9.2,14.5h-9l-7.7-13.3h-4.9v13.3h-7.6v-35.1h13.3C268.3,127.3,272.4,132.1,272.4,138.1z
	 M252.8,143.1h6c3.2,0,5.7-1.2,5.7-5c0-3.2-2-4.7-5.5-4.7h-6.2L252.8,143.1z"/>
<path d="M312.9,162.3v-35.1h7.6v35.1L312.9,162.3z"/>
<path d="M390.7,135.8l-6.9,2.5c-1.6-3.7-4.1-5.6-8.3-5.6c-6,0-9.1,4.6-9.1,12.2c0,7.6,3,12.1,9.1,12.1c4.7,0,8-2.5,8-6.9v-1.3h-7.5
	V143h15.2v19.3h-7v-3.2c-2.4,2.7-5.7,4-9.9,4c-7.6,0-15.8-4.9-15.8-18.3c0-13,8.1-18.5,16.9-18.5C382,126.4,387.7,129.2,390.7,135.8
	z"/>
<path d="M430.2,162.4v-35.1h7.6v35.1H430.2z"/>
<path d="M497.9,162.3L484.6,139v23.3h-6.9v-35.1h8.8l13.2,23.9v-23.9h6.9v35.1L497.9,162.3z"/>
<path d="M554.7,156.8l-1.6,5.5h-7.8l11.4-35.1h9.6l11.4,35.1h-8.1l-1.6-5.5H554.7z M566.2,150.7l-4.9-17.6l-4.9,17.6H566.2z"/>
<path d="M639.2,155.8v6.6h-22.8v-35.1h7.6v28.5L639.2,155.8z"/>
<path d="M678,156.6l5-4.6c2.8,3.1,6.8,4.8,10.9,4.7c4,0,6.9-1.5,6.9-4.2c0-2.6-1.3-3.9-8.7-5.2c-8.3-1.5-12.3-4.5-12.3-10.7
	c0-6.3,5.5-10.3,13.7-10.3c6.9,0,11.7,2.7,14.7,6.2l-5.2,4.2c-2.4-2.7-5.9-4.3-9.5-4.1c-3.8,0-5.9,1.4-5.9,3.8
	c0,2.3,1.4,3.4,8.4,4.7c8.8,1.5,12.7,4.6,12.7,10.9c0,6.9-5.7,11.1-14.9,11.1C687.4,163.2,681.7,161,678,156.6z"/>
<path d="M735.7,3.9h-4.9v12.4h-3.1V3.9h-4.9V1.3h12.8V3.9z M753.8,16.3h-3L750.1,5l-3.3,11.4h-3.3l-3.3-11.3l-0.7,11.3h-3l1-15.1
	h4.4l3.3,11.7l3.2-11.7h4.4L753.8,16.3z"/>
<rect y="30.4" class="st0" width="135.4" height="18.7"/>
<rect y="0" class="st1" width="135.4" height="18.7"/>
<rect x="0" y="125" class="st2" width="135.4" height="37.4"/>
<rect y="91.1" class="st3" width="135.4" height="18.7"/>
<rect y="60.7" class="st4" width="135.4" height="18.7"/>
</svg>
